<svg width="59" height="61" viewBox="0 0 59 61" fill="none" xmlns="http://www.w3.org/2000/svg">
<path d="M25.9148 3.64763C33.0833 -3.21117 45.0048 1.1272 46.0885 10.989C46.5188 14.9052 48.8486 18.3588 52.3186 20.2244C61.0569 24.9226 60.6148 37.6013 51.5705 41.6794C47.979 43.2988 45.4144 46.5818 44.7123 50.4584C42.9444 60.2208 30.7496 63.7183 24.0763 56.3769C21.4263 53.4616 17.5115 52.037 13.6076 52.5672C3.77671 53.9026 -3.318 43.3855 1.60194 34.7701C3.55565 31.349 3.70082 27.1855 1.99014 23.6366C-2.31779 14.6995 5.4922 4.70205 15.2062 6.71889C19.0637 7.51979 23.0682 6.37127 25.9148 3.64763Z" fill="#FDFAE7"/>
</svg>
