<svg width="59" height="61" viewBox="0 0 59 61" fill="none" xmlns="http://www.w3.org/2000/svg">
<path d="M25.9148 3.92595C33.0833 -2.93285 45.0048 1.40552 46.0885 11.2674C46.5188 15.1835 48.8486 18.6371 52.3186 20.5028C61.0569 25.2009 60.6148 37.8796 51.5705 41.9577C47.979 43.5771 45.4144 46.8601 44.7123 50.7367C42.9444 60.4991 30.7496 63.9966 24.0763 56.6552C21.4263 53.7399 17.5115 52.3153 13.6076 52.8456C3.77671 54.1809 -3.318 43.6638 1.60194 35.0485C3.55565 31.6273 3.70082 27.4638 1.99014 23.9149C-2.31779 14.9778 5.4922 4.98037 15.2062 6.99721C19.0637 7.79811 23.0682 6.64959 25.9148 3.92595Z" fill="#3C491A"/>
</svg>
