<svg width="297" height="293" viewBox="0 0 297 293" fill="none" xmlns="http://www.w3.org/2000/svg">
<path d="M247.198 176.834C272.973 182.811 299.578 166.398 296.8 140.118C295.322 126.141 263.55 125.604 258 112.5C252.45 99.3959 273.255 74.0399 264.241 63.2465C247.293 42.952 216.97 50.5861 203.313 73.2207L178.014 115.148C172.866 123.681 176.445 134.828 180.331 144.004C184.217 153.179 189.735 163.508 199.452 165.762L247.198 176.834Z" fill="#FDFAE7"/>
<path d="M91.8928 62.032C75.9999 40.9027 80.2793 9.96688 105.472 1.88227C118.871 -2.41745 132.025 14.7265 146.27 14.4999C160.516 14.2732 175.509 -3.31858 189.038 0.552706C214.476 7.83175 219.74 38.6157 204.529 60.2399L176.354 100.295C170.619 108.447 158.962 109.683 148.988 109.842C139.014 110.001 127.323 109.136 121.332 101.171L91.8928 62.032Z" fill="#FDFAE7"/>
<path d="M54.1833 178.178C29.4529 187.58 0.871208 174.909 0.0665363 148.495C-0.36142 134.447 20.2745 126.233 24 112.5C27.7255 98.7669 14.4509 79.8452 21.9212 67.934C35.9673 45.5377 67.0448 49.0083 83.6407 69.5915L114.382 107.718C120.638 115.478 118.601 127.007 115.992 136.623C113.384 146.238 109.315 157.218 99.9921 160.762L54.1833 178.178Z" fill="#FDFAE7"/>
<path d="M244.571 184.009C269.886 191.703 284.709 219.202 269.145 240.574C260.868 251.941 232.867 243.25 221.5 251.827C210.133 260.404 215.672 286.042 202.462 290.889C177.623 300.001 155.185 278.249 154.69 251.827L153.772 202.885C153.586 192.924 162.267 185.057 170.226 179.052C178.186 173.046 188.135 166.856 197.679 169.756L244.571 184.009Z" fill="#FDFAE7"/>
<path d="M55.4719 184.009C30.1567 191.703 15.3341 219.202 30.8977 240.574C39.175 251.941 61.6326 243.25 73 251.827C84.3674 260.404 84.3707 286.042 97.5809 290.889C122.42 300.001 144.858 278.249 145.353 251.827L146.27 202.885C146.457 192.924 137.776 185.057 129.817 179.052C121.857 173.046 111.908 166.856 102.364 169.756L55.4719 184.009Z" fill="#FDFAE7"/>
</svg>
