<svg width="64" height="74" viewBox="0 0 64 74" fill="none" xmlns="http://www.w3.org/2000/svg">
<mask id="mask0_623_59" style="mask-type:luminance" maskUnits="userSpaceOnUse" x="22" y="24" width="21" height="23">
<path d="M31.8199 35.2191C31.5099 35.1691 31.2199 35.0591 30.9599 34.9391C31.2499 35.7391 31.2599 36.3591 31.0699 36.7791C30.7199 37.5591 29.7999 37.7291 28.6699 37.3791C27.6499 37.0591 26.4499 36.3091 25.4099 35.1791C23.2999 32.8991 21.8099 29.1091 23.8299 24.3991C22.6099 25.8891 22.0899 27.5491 22.0199 29.1591C21.9199 31.3791 22.6599 33.4891 23.5399 34.8491C24.9699 37.0691 26.9999 37.9391 28.7099 38.8591C29.0299 39.0291 29.4799 39.2291 29.7399 39.4691C30.6799 40.3091 30.9299 41.5591 30.6699 42.9491C30.4699 43.9991 29.9699 45.1291 29.2399 46.2191C30.4999 45.3391 31.0299 44.8291 32.4199 44.8691C33.9099 44.8691 34.4199 45.6291 35.3799 46.1491C34.7799 45.2991 34.3399 44.4191 34.0999 43.5491C33.7299 42.1791 33.8599 40.8491 34.6199 39.7491C35.1399 38.9991 35.7499 38.7291 36.4799 38.4091C37.6799 37.8791 39.5899 37.1891 41.4399 33.6091C42.1399 32.2591 42.2899 30.3591 42.1399 28.6091C41.9699 26.6991 41.4499 24.9791 40.8999 24.3691L40.8199 24.3991C40.9399 24.7291 41.0499 25.0591 41.1399 25.3791C42.2599 29.2691 41.3999 32.1191 40.0199 34.0791C38.6399 36.0391 36.7399 37.1191 35.7799 37.4791C35.6899 37.5091 35.5999 37.5391 35.5299 37.5591C35.1799 37.6591 34.8699 37.6691 34.6099 37.6091C34.2499 37.5191 33.9699 37.2991 33.7799 36.9891C33.6099 36.6991 33.5199 36.3291 33.5099 35.9191C33.5099 35.5991 33.5599 35.2591 33.6599 34.8991C32.9899 35.2491 32.3599 35.3091 31.8099 35.2191" fill="white"/>
</mask>
<g mask="url(#mask0_623_59)">
<path d="M42.3099 24.3792H21.8199V46.2292H42.3099V24.3792Z" fill="url(#paint0_linear_623_59)"/>
</g>
<mask id="mask1_623_59" style="mask-type:luminance" maskUnits="userSpaceOnUse" x="25" y="48" width="15" height="26">
<path d="M25.5834 54.56C25.6134 55.85 25.7634 57.22 26.0034 58.62C26.2634 60.47 26.6834 62.32 27.2234 64.03C27.6634 65.44 28.1734 66.87 28.7834 68.22C29.2134 69.18 29.8134 70.37 30.5534 71.13V71.14C30.9334 71.49 31.4134 71.87 31.9334 72.02C32.0534 72.07 32.1734 72.09 32.2934 72.09H32.3234C32.3934 72.1 32.4634 72.11 32.5334 72.1C33.1334 72.12 33.7134 71.78 34.1334 71.37C34.9334 70.57 35.6134 69.49 36.1034 68.49C36.4334 67.81 36.7434 67.11 37.0134 66.41C37.9234 64.06 38.4734 61.45 38.8734 58.97L38.9634 58.36C39.2834 56.06 39.4834 53.38 38.8434 51.03C38.5634 49.84 38.0934 48.83 37.3834 48.08L37.4834 48C40.2034 50.86 39.9734 55.35 39.4234 59.04L39.3234 59.7C38.8534 62.49 38.1834 65.36 37.2234 67.72C36.8934 68.52 36.5534 69.28 36.1934 69.96C35.5034 71.29 34.6934 72.35 34.0134 73C33.4334 73.55 32.8134 73.76 32.2934 73.68C31.7734 73.68 31.1834 73.38 30.4634 72.75C29.1534 71.45 27.8234 68.4 26.7534 65.17C25.6834 61.95 25.0734 58.24 25.0034 55.09C24.9434 52.14 25.6734 49.71 27.1834 48.37C27.3034 48.25 27.4334 48.13 27.5634 48.03L27.6034 48.09C25.8334 49.48 25.5434 52.5 25.5834 54.59" fill="white"/>
</mask>
<g mask="url(#mask1_623_59)">
<path d="M40.1934 47.99H24.9234V73.74H40.1934V47.99Z" fill="url(#paint1_linear_623_59)"/>
</g>
<mask id="mask2_623_59" style="mask-type:luminance" maskUnits="userSpaceOnUse" x="45" y="4" width="19" height="22">
<path d="M55.8399 4.91992C50.2399 4.91992 45.6899 9.45992 45.6899 15.0699C45.6899 20.6799 50.2299 25.2199 55.8399 25.2199C58.5299 25.2199 60.9699 24.1799 62.7799 22.4699C61.2599 23.6099 59.3799 24.2799 57.3299 24.2799C52.3099 24.2799 48.2399 20.2099 48.2399 15.1899V15.1299V15.0699C48.2399 12.1499 49.6499 9.56992 51.8299 7.95992C53.3599 6.79992 55.2599 6.10992 57.3299 6.10992C59.9199 6.10992 62.2599 7.18992 63.9099 8.92992C62.0599 6.49992 59.1299 4.92992 55.8299 4.92992" fill="white"/>
</mask>
<g mask="url(#mask2_623_59)">
<path d="M63.9099 4.91992H45.6899V25.2099H63.9099V4.91992Z" fill="url(#paint2_linear_623_59)"/>
</g>
<mask id="mask3_623_59" style="mask-type:luminance" maskUnits="userSpaceOnUse" x="0" y="4" width="19" height="22">
<path d="M8.07 4.91992C13.67 4.91992 18.22 9.45992 18.22 15.0699C18.22 20.6799 13.68 25.2199 8.07 25.2199C5.38 25.2199 2.94 24.1799 1.13 22.4699C2.65 23.6099 4.53 24.2799 6.58 24.2799C11.6 24.2799 15.67 20.2099 15.67 15.1899V15.1299V15.0699C15.67 12.1499 14.26 9.56992 12.08 7.95992C10.55 6.79992 8.65 6.10992 6.58 6.10992C3.99 6.10992 1.65 7.18992 0 8.92992C1.85 6.49992 4.78 4.92992 8.08 4.92992" fill="white"/>
</mask>
<g mask="url(#mask3_623_59)">
<path d="M18.21 4.91992H-0.0100098V25.2099H18.21V4.91992Z" fill="url(#paint3_linear_623_59)"/>
</g>
<mask id="mask4_623_59" style="mask-type:luminance" maskUnits="userSpaceOnUse" x="20" y="0" width="24" height="25">
<path d="M32.64 12.4604C32.64 12.4604 32.7 12.5004 32.74 12.5304C32.85 12.6304 32.93 12.7704 32.77 12.9504C32.69 13.0504 32.45 13.3104 32.15 13.0504H32.14C32.07 12.9804 31.98 12.8804 31.94 12.7604C31.88 12.6104 31.88 12.4404 32.02 12.2804C32.12 12.1604 32.29 12.0404 32.48 12.0104C32.64 11.9904 32.8 12.0204 32.96 12.1604C33.08 12.2804 33.2 12.4504 33.25 12.6304C33.31 12.8304 33.28 13.0604 33.11 13.2604C32.96 13.4404 32.72 13.5804 32.47 13.6104C32.25 13.6304 32.02 13.5804 31.82 13.4004H31.81C31.63 13.2304 31.48 12.9904 31.43 12.7404C31.37 12.4704 31.43 12.1904 31.63 11.9404C31.83 11.7004 32.14 11.5404 32.46 11.5104C32.74 11.4804 33.04 11.5604 33.31 11.7904H33.32C33.56 12.0204 33.74 12.3304 33.8 12.6504C33.86 12.9904 33.8 13.3404 33.53 13.6404H33.52C33.26 13.9404 32.88 14.1404 32.48 14.1704C32.12 14.2004 31.74 14.1004 31.42 13.8204L31.4 13.8004C31.09 13.5304 30.88 13.1404 30.82 12.7404C30.76 12.3304 30.85 11.9004 31.16 11.5404V11.5204C31.49 11.1704 31.95 10.9404 32.43 10.9104C32.87 10.8804 33.33 11.0104 33.72 11.3504L33.74 11.3704C34.12 11.7104 34.37 12.1704 34.44 12.6604C34.51 13.1504 34.39 13.6704 34.02 14.0904L34 14.1104C33.62 14.5304 33.08 14.8004 32.51 14.8304C31.98 14.8604 31.43 14.7104 30.96 14.3004L30.93 14.2804C30.48 13.8804 30.19 13.3204 30.11 12.7504C30.03 12.1704 30.18 11.5704 30.61 11.0704L30.63 11.0504C31.08 10.5504 31.71 10.2504 32.38 10.2104C33.01 10.1704 33.66 10.3604 34.2 10.8304L34.23 10.8604C34.76 11.3404 35.1 11.9904 35.18 12.6604C35.26 13.3404 35.08 14.0404 34.59 14.6104L34.57 14.6404C34.05 15.2204 33.31 15.5704 32.54 15.6104C31.81 15.6504 31.05 15.4304 30.42 14.8804L30.38 14.8504C29.76 14.3004 29.37 13.5404 29.28 12.7604C29.19 11.9804 29.4 11.1704 29.97 10.5104L30 10.4804C30.6 9.81039 31.45 9.42039 32.33 9.37039C33.18 9.32039 34.06 9.59039 34.78 10.2204L34.82 10.2604C35.54 10.9004 35.97 11.7704 36.07 12.6604C36.17 13.5604 35.92 14.4804 35.28 15.2304L35.25 15.2704C34.56 16.0404 33.59 16.4804 32.59 16.5304C31.62 16.5804 30.61 16.2704 29.79 15.5604L29.74 15.5204C28.92 14.7904 28.43 13.8004 28.32 12.7804C28.21 11.7604 28.5 10.7104 29.23 9.86039L29.27 9.82039C30.05 8.94039 31.15 8.45039 32.29 8.39039C33.4 8.33039 34.54 8.69039 35.48 9.50039L35.53 9.55039C36.46 10.3804 37.02 11.5104 37.14 12.6604C37.26 13.8204 36.93 15.0104 36.11 15.9604L36.07 16.0104C35.19 17.0004 33.95 17.5504 32.66 17.6204C31.41 17.6804 30.11 17.2804 29.05 16.3604L28.99 16.3104C27.93 15.3704 27.31 14.1004 27.18 12.8004C27.05 11.5004 27.42 10.1604 28.35 9.09039L28.4 9.04039C29.39 7.93039 30.79 7.31039 32.23 7.24039C33.64 7.17039 35.1 7.63039 36.29 8.66039L36.36 8.72039C37.55 9.78039 38.24 11.2104 38.38 12.6704C38.52 14.1304 38.1 15.6304 37.06 16.8304L37.01 16.8904C35.9 18.1404 34.34 18.8304 32.72 18.9104C31.14 18.9904 29.49 18.4704 28.16 17.3204L28.08 17.2504C26.75 16.0604 25.97 14.4604 25.82 12.8304C25.67 11.1904 26.14 9.52039 27.3 8.18039L27.36 8.11039C28.61 6.71039 30.35 5.95039 32.15 5.86039C33.92 5.78039 35.76 6.35039 37.24 7.64039L37.32 7.71039C38.81 9.04039 39.67 10.8204 39.84 12.6404C40.01 14.4704 39.48 16.3304 38.19 17.8204L38.12 17.9004C36.73 19.4604 34.8 20.3104 32.79 20.4004C30.81 20.4904 28.77 19.8404 27.11 18.4104L27.02 18.3304C25.36 16.8504 24.41 14.8704 24.23 12.8404C24.05 10.8104 24.64 8.74039 26.07 7.08039L26.14 7.00039C27.68 5.27039 29.83 4.33039 32.05 4.23039C34.25 4.13039 36.52 4.85039 38.36 6.44039L38.46 6.53039C40.3 8.17039 41.36 10.3804 41.56 12.6304C41.76 14.8804 41.1 17.1804 39.51 19.0104L39.43 19.1004C37.72 21.0204 35.34 22.0604 32.88 22.1704C30.44 22.2804 27.92 21.4804 25.88 19.7104L25.76 19.6104C23.71 17.7904 22.55 15.3504 22.33 12.8504C22.11 10.3604 22.85 7.81039 24.6 5.79039L24.69 5.69039C26.58 3.57039 29.21 2.42039 31.93 2.30039C34.63 2.18039 37.43 3.07039 39.68 5.02039L39.81 5.13039C42.07 7.15039 43.36 9.85039 43.59 12.6004C43.83 15.3604 43.01 18.1704 41.08 20.4004L40.98 20.5104C38.89 22.8504 35.99 24.1204 32.98 24.2504C29.99 24.3804 26.91 23.3904 24.42 21.2404L24.28 21.1204C21.78 18.8904 20.37 15.9104 20.11 12.8704C19.85 9.83039 20.75 6.73039 22.89 4.26039L23 4.13039C25.26 1.59039 28.39 0.210394 31.64 0.0203943C34.88 -0.159606 38.24 0.850394 40.98 3.11039L40.73 3.42039C38.06 1.23039 34.8 0.250394 31.66 0.420394C28.51 0.600394 25.48 1.94039 23.29 4.39039L23.18 4.51039C21.12 6.89039 20.25 9.88039 20.5 12.8204C20.75 15.7604 22.12 18.6504 24.54 20.8004L24.68 20.9204C27.08 23.0004 30.07 23.9604 32.96 23.8304C35.86 23.7004 38.66 22.4904 40.68 20.2304L40.78 20.1204C42.64 17.9704 43.43 15.2604 43.2 12.6104C42.97 9.95039 41.73 7.35039 39.55 5.40039L39.43 5.29039C37.26 3.41039 34.57 2.55039 31.96 2.67039C29.34 2.79039 26.81 3.89039 25 5.92039L24.91 6.02039C23.23 7.96039 22.53 10.4004 22.73 12.7904C22.94 15.1804 24.06 17.5304 26.02 19.2804L26.13 19.3804C28.08 21.0704 30.51 21.8404 32.85 21.7404C35.21 21.6304 37.49 20.6404 39.12 18.8104L39.2 18.7204C40.71 16.9704 41.34 14.7804 41.15 12.6304C40.96 10.4804 39.95 8.37039 38.18 6.80039L38.08 6.71039C36.32 5.19039 34.15 4.50039 32.05 4.59039C29.93 4.69039 27.88 5.58039 26.42 7.23039L26.35 7.31039C24.99 8.88039 24.43 10.8504 24.6 12.7704C24.77 14.7004 25.68 16.5904 27.26 18.0004L27.35 18.0804C28.92 19.4404 30.87 20.0604 32.75 19.9704C34.65 19.8804 36.48 19.0804 37.8 17.6104L37.86 17.5404C39.08 16.1404 39.58 14.3804 39.42 12.6504C39.26 10.9204 38.45 9.24039 37.03 7.98039L36.95 7.91039C35.55 6.69039 33.81 6.15039 32.13 6.23039C30.43 6.31039 28.79 7.03039 27.62 8.34039L27.56 8.40039C26.48 9.65039 26.03 11.2204 26.18 12.7504C26.32 14.2904 27.05 15.7904 28.31 16.9104L28.38 16.9704C29.63 18.0504 31.17 18.5404 32.66 18.4704C34.17 18.4004 35.63 17.7504 36.67 16.5904L36.72 16.5304C37.68 15.4204 38.07 14.0204 37.94 12.6604C37.81 11.3004 37.16 9.96039 36.05 8.97039L35.99 8.91039C34.88 7.95039 33.52 7.53039 32.21 7.59039C30.87 7.65039 29.58 8.23039 28.66 9.26039L28.62 9.31039C27.77 10.3004 27.43 11.5304 27.54 12.7304C27.66 13.9304 28.24 15.1104 29.21 15.9804L29.27 16.0304C30.25 16.8804 31.44 17.2504 32.6 17.1904C33.78 17.1304 34.92 16.6204 35.73 15.7104L35.77 15.6604C36.52 14.7904 36.81 13.7104 36.71 12.6604C36.6 11.6004 36.09 10.5704 35.24 9.81039L35.19 9.77039C34.33 9.03039 33.29 8.71039 32.28 8.76039C31.24 8.81039 30.24 9.26039 29.54 10.0604L29.51 10.1004C28.85 10.8604 28.6 11.8004 28.7 12.7204C28.8 13.6404 29.24 14.5404 29.99 15.2004L30.03 15.2404C30.77 15.8804 31.68 16.1604 32.55 16.1104C33.45 16.0604 34.32 15.6704 34.94 14.9804L34.97 14.9504C35.54 14.2904 35.75 13.4804 35.67 12.6804C35.58 11.8804 35.19 11.1104 34.55 10.5304L34.51 10.5004C33.87 9.95039 33.09 9.71039 32.34 9.75039C31.56 9.79039 30.81 10.1404 30.28 10.7304L30.25 10.7604C29.76 11.3204 29.58 12.0204 29.66 12.7004C29.74 13.3804 30.08 14.0504 30.62 14.5304L30.65 14.5604C31.2 15.0304 31.86 15.2304 32.49 15.1904C33.16 15.1504 33.8 14.8604 34.25 14.3504L34.27 14.3304C34.69 13.8504 34.83 13.2604 34.77 12.6904C34.7 12.1104 34.41 11.5504 33.95 11.1404L33.92 11.1204C33.46 10.7204 32.91 10.5604 32.38 10.5904C31.82 10.6204 31.28 10.8804 30.9 11.3004L30.88 11.3204C30.53 11.7204 30.41 12.2104 30.47 12.6904C30.53 13.1704 30.78 13.6304 31.16 13.9704L31.18 13.9904C31.56 14.3204 32.01 14.4504 32.44 14.4204C32.91 14.3904 33.35 14.1804 33.66 13.8304V13.8104C33.96 13.4804 34.05 13.0804 34 12.7004C33.94 12.3104 33.74 11.9304 33.43 11.6604L33.41 11.6404C33.11 11.3804 32.75 11.2804 32.4 11.3004C32.02 11.3304 31.66 11.5004 31.41 11.7804H31.4C31.17 12.0504 31.11 12.3704 31.15 12.6704C31.2 12.9804 31.37 13.2804 31.61 13.4904H31.63C31.87 13.7104 32.14 13.7804 32.4 13.7604C32.7 13.7404 32.98 13.5904 33.17 13.3804C33.34 13.1704 33.39 12.9304 33.35 12.7104C33.31 12.4704 33.18 12.2504 33 12.0904H32.99C32.82 11.9304 32.62 11.8804 32.44 11.9004C32.22 11.9204 32.01 12.0304 31.87 12.1904C31.75 12.3404 31.72 12.5004 31.76 12.6504C31.8 12.8204 31.9 12.9804 32.02 13.0904C32.13 13.1904 32.26 13.2204 32.37 13.2104C32.52 13.1904 32.67 13.1104 32.76 13.0004C32.83 12.9104 32.84 12.8204 32.82 12.7304C32.79 12.6204 32.72 12.5304 32.65 12.4604C32.59 12.4104 32.54 12.3904 32.48 12.4004C32.39 12.4104 32.31 12.4704 32.26 12.5304C32.26 12.5304 32.24 12.5904 32.25 12.6104C32.27 12.6604 32.31 12.7104 32.35 12.7404C32.35 12.7404 32.4 12.7004 32.41 12.6804C32.41 12.6804 32.43 12.6604 32.44 12.6804L32.57 12.4504L32.64 12.4604Z" fill="white"/>
</mask>
<g mask="url(#mask4_623_59)">
<path d="M43.89 -0.189606H19.91V24.3404H43.89V-0.189606Z" fill="url(#paint4_linear_623_59)"/>
</g>
<mask id="mask5_623_59" style="mask-type:luminance" maskUnits="userSpaceOnUse" x="25" y="45" width="14" height="27">
<path d="M32.54 53.7005C32.61 53.6705 32.73 53.6606 32.81 53.6206C32.89 53.5806 32.94 53.5006 32.96 53.4006C32.98 53.3006 32.98 53.1605 32.94 53.0605C32.9 52.9605 32.83 52.8805 32.75 52.8505C32.67 52.8105 32.57 52.8105 32.47 52.8505C32.37 52.8805 32.26 52.9406 32.18 53.0106C32.1 53.0806 32.05 53.1505 32.03 53.2405C32 53.3305 32 53.4306 32.03 53.5406C32.05 53.6406 32.08 53.7506 32.14 53.8306C32.2 53.9106 32.29 53.9506 32.38 53.9806C32.48 54.0006 32.59 54.0105 32.69 54.0005C32.8 54.0005 32.9 53.9705 33 53.9305C33.09 53.8805 33.17 53.8105 33.23 53.7005C33.29 53.6005 33.32 53.4705 33.34 53.3505C33.36 53.2305 33.38 53.1205 33.35 53.0205C33.32 52.9205 33.26 52.8206 33.17 52.7206C33.08 52.6206 32.97 52.5206 32.86 52.4706C32.74 52.4106 32.62 52.4006 32.51 52.4006C32.39 52.4006 32.28 52.4006 32.16 52.4806C32.04 52.5606 31.9 52.7005 31.81 52.8205C31.72 52.9405 31.67 53.0405 31.64 53.1605C31.61 53.2805 31.61 53.4106 31.63 53.5506C31.65 53.6806 31.69 53.8105 31.75 53.9305C31.81 54.0505 31.9 54.1506 32 54.2306C32.1 54.3106 32.22 54.3606 32.36 54.4006C32.51 54.4406 32.68 54.4705 32.83 54.4605C32.98 54.4605 33.11 54.4105 33.23 54.3405C33.35 54.2705 33.46 54.2005 33.54 54.0905C33.62 53.9905 33.68 53.8605 33.72 53.7405C33.76 53.6205 33.77 53.5205 33.79 53.4105C33.8 53.3005 33.81 53.1805 33.79 53.0605C33.79 52.9405 33.75 52.8305 33.68 52.7005C33.6 52.5705 33.48 52.4206 33.34 52.3006C33.2 52.1806 33.04 52.0905 32.88 52.0205C32.71 51.9505 32.54 51.9106 32.34 51.9406C32.14 51.9806 31.9 52.0905 31.71 52.2505C31.52 52.4005 31.38 52.6006 31.29 52.7906C31.2 52.9806 31.16 53.1706 31.14 53.3706C31.12 53.5706 31.14 53.7705 31.19 53.9605C31.25 54.1405 31.36 54.3005 31.5 54.4505C31.64 54.6105 31.81 54.7605 32.04 54.8605C32.27 54.9605 32.57 55.0206 32.83 55.0106C33.09 55.0106 33.33 54.9406 33.55 54.8006C33.77 54.6606 33.97 54.4405 34.11 54.1705C34.26 53.9005 34.35 53.5605 34.36 53.2505C34.38 52.9405 34.31 52.6406 34.21 52.4006C34.11 52.1606 33.97 51.9706 33.81 51.8006C33.65 51.6306 33.47 51.4905 33.25 51.3905C33.04 51.2905 32.79 51.2406 32.57 51.2206C32.35 51.2006 32.16 51.2206 31.96 51.2606C31.76 51.3106 31.57 51.3906 31.37 51.5106C31.17 51.6306 30.97 51.7905 30.8 52.0005C30.62 52.2005 30.47 52.4406 30.38 52.6906C30.29 52.9406 30.28 53.1805 30.29 53.4605C30.3 53.7405 30.35 54.0505 30.42 54.3105C30.49 54.5705 30.59 54.7905 30.73 54.9905C30.86 55.2005 31.03 55.3905 31.29 55.5705C31.55 55.7505 31.9 55.9105 32.23 55.9905C32.57 56.0605 32.9 56.0405 33.22 55.9605C33.54 55.8805 33.86 55.7505 34.14 55.5905C34.42 55.4205 34.65 55.2105 34.84 54.9605C35.03 54.7105 35.17 54.4105 35.27 54.1105C35.37 53.8105 35.43 53.5006 35.44 53.2206C35.45 52.9506 35.43 52.7105 35.37 52.4605C35.32 52.2005 35.24 51.9305 35.08 51.6405C34.92 51.3505 34.69 51.0506 34.43 50.7906C34.16 50.5406 33.86 50.3305 33.49 50.1805C33.12 50.0405 32.7 49.9505 32.3 49.9505C31.91 49.9505 31.55 50.0306 31.24 50.1506C30.93 50.2706 30.66 50.4206 30.42 50.6506C30.17 50.8706 29.94 51.1605 29.77 51.4505C29.6 51.7305 29.48 52.0105 29.39 52.2805C29.3 52.5505 29.25 52.8105 29.23 53.1405C29.21 53.4705 29.23 53.8805 29.29 54.2105C29.35 54.5405 29.47 54.8106 29.6 55.0506C29.72 55.3006 29.86 55.5305 30.06 55.7505C30.26 55.9705 30.53 56.1805 30.85 56.3605C31.17 56.5405 31.55 56.7005 31.87 56.8405C32.2 56.9805 32.48 57.0905 32.77 57.2105C33.06 57.3305 33.36 57.4605 33.56 57.5605C33.76 57.6705 33.85 57.7606 33.94 57.8706C34.03 57.9806 34.13 58.1105 34.23 58.3205C34.33 58.5405 34.43 58.8406 34.5 59.1506C34.57 59.4606 34.6 59.7606 34.61 60.1206C34.62 60.4806 34.61 60.8906 34.57 61.2906C34.53 61.6906 34.45 62.0705 34.34 62.6305C34.23 63.1905 34.07 63.9305 33.88 64.6605C33.69 65.3905 33.46 66.1006 33.23 66.7306C33 67.3606 32.79 67.8805 32.63 68.1805C32.47 68.4805 32.38 68.5506 32.25 68.5406C32.12 68.5406 31.96 68.4605 31.88 68.3205C31.8 68.1805 31.8 67.9606 31.91 67.5806C32.02 67.2006 32.23 66.6505 32.48 65.9905C32.72 65.3305 33 64.5705 33.18 64.0205C33.36 63.4705 33.45 63.1406 33.52 62.7906C33.6 62.4406 33.66 62.0905 33.71 61.6805C33.76 61.2705 33.79 60.8106 33.81 60.4806C33.82 60.1506 33.82 59.9405 33.81 59.7405C33.8 59.5405 33.77 59.3306 33.72 59.1506C33.67 58.9706 33.61 58.8105 33.53 58.6605C33.46 58.5105 33.38 58.3705 33.28 58.2705C33.18 58.1705 33.07 58.1105 32.87 58.0305C32.67 57.9505 32.39 57.8506 32.08 57.7306C31.77 57.6106 31.43 57.4805 31.16 57.3605C30.89 57.2405 30.69 57.1305 30.5 57.0005C30.31 56.8805 30.12 56.7405 29.95 56.5905C29.78 56.4405 29.63 56.2906 29.49 56.1206C29.36 55.9606 29.24 55.7906 29.15 55.6206C29.05 55.4506 28.97 55.2705 28.9 55.0905C28.83 54.9205 28.77 54.7505 28.71 54.5305C28.66 54.3205 28.61 54.0505 28.59 53.7805C28.56 53.5105 28.56 53.2405 28.59 52.9505C28.62 52.6605 28.67 52.3506 28.75 52.0506C28.83 51.7606 28.93 51.4805 29.05 51.2405C29.17 51.0005 29.3 50.8006 29.45 50.6206C29.6 50.4306 29.76 50.2605 29.97 50.1005C30.17 49.9405 30.42 49.7905 30.67 49.6705C30.92 49.5505 31.17 49.4505 31.4 49.3805C31.63 49.3205 31.84 49.2906 32.08 49.2606C32.32 49.2406 32.58 49.2206 32.89 49.2606C33.2 49.3006 33.55 49.4006 33.91 49.5806C34.27 49.7606 34.64 50.0205 34.93 50.2805C35.22 50.5405 35.43 50.8105 35.6 51.1105C35.77 51.4105 35.9 51.7605 35.98 52.0605C36.06 52.3605 36.08 52.6105 36.09 52.8805C36.09 53.1505 36.09 53.4406 36.05 53.7306C36.01 54.0106 35.94 54.2905 35.82 54.5605C35.7 54.8305 35.53 55.0805 35.34 55.3105C35.15 55.5405 34.94 55.7505 34.72 55.9205C34.5 56.0805 34.27 56.2005 33.97 56.3105C33.68 56.4205 33.32 56.5106 32.98 56.5406C32.64 56.5706 32.32 56.5405 32.01 56.4505C31.7 56.3605 31.42 56.2005 31.18 56.0605C30.95 55.9205 30.78 55.7905 30.6 55.6005C30.42 55.4105 30.24 55.1605 30.11 54.9105C29.98 54.6605 29.9 54.4105 29.85 54.1305C29.8 53.8505 29.78 53.5405 29.8 53.2005C29.82 52.8605 29.87 52.5005 30 52.1805C30.12 51.8605 30.32 51.5905 30.57 51.3505C30.82 51.1105 31.14 50.9006 31.44 50.7606C31.74 50.6206 32.02 50.5605 32.26 50.5305C32.5 50.5105 32.69 50.5305 32.88 50.5705C33.07 50.6105 33.25 50.6705 33.45 50.7705C33.64 50.8705 33.85 51.0105 34.02 51.1405C34.19 51.2705 34.32 51.4005 34.44 51.5705C34.57 51.7405 34.69 51.9505 34.77 52.1805C34.85 52.4005 34.9 52.6305 34.92 52.8805C34.93 53.1305 34.92 53.4106 34.87 53.6506C34.82 53.8906 34.75 54.0905 34.66 54.2805C34.57 54.4705 34.47 54.6406 34.32 54.8006C34.17 54.9606 33.98 55.1205 33.78 55.2405C33.57 55.3505 33.35 55.4205 33.11 55.4605C32.86 55.5005 32.59 55.5105 32.33 55.4605C32.07 55.4005 31.83 55.2806 31.62 55.1206C31.42 54.9706 31.25 54.7905 31.12 54.6105C30.99 54.4305 30.88 54.2505 30.82 54.0605C30.75 53.8705 30.73 53.6705 30.72 53.4505C30.71 53.2305 30.72 53.0006 30.79 52.7606C30.87 52.5206 31.02 52.2905 31.2 52.0905C31.38 51.9005 31.6 51.7505 31.82 51.6405C32.04 51.5405 32.26 51.4806 32.48 51.4706C32.7 51.4706 32.92 51.5106 33.1 51.5806C33.29 51.6506 33.45 51.7405 33.58 51.8605C33.72 51.9805 33.83 52.1305 33.92 52.2705C34.01 52.4205 34.06 52.5606 34.09 52.7206C34.12 52.8806 34.12 53.0605 34.1 53.2105C34.09 53.3605 34.05 53.5005 34.01 53.6405C33.97 53.7805 33.91 53.9405 33.84 54.0705C33.77 54.2005 33.68 54.3105 33.59 54.3905C33.5 54.4705 33.4 54.5205 33.28 54.5605C33.16 54.6005 33.01 54.6305 32.84 54.6405C32.68 54.6505 32.5 54.6405 32.34 54.6105C32.18 54.5705 32.04 54.5005 31.9 54.4105C31.76 54.3205 31.62 54.2106 31.51 54.0406C31.41 53.8706 31.34 53.6406 31.33 53.4406C31.31 53.2406 31.35 53.0605 31.41 52.8905C31.47 52.7205 31.57 52.5706 31.69 52.4406C31.81 52.3106 31.95 52.2105 32.08 52.1405C32.22 52.0705 32.35 52.0305 32.48 52.0305C32.61 52.0305 32.74 52.0606 32.88 52.1206C33.02 52.1806 33.16 52.2706 33.27 52.3706C33.38 52.4606 33.44 52.5605 33.5 52.6605C33.56 52.7605 33.61 52.8506 33.63 52.9806C33.66 53.1006 33.66 53.2406 33.63 53.3706C33.61 53.4906 33.57 53.6005 33.51 53.7105C33.45 53.8105 33.37 53.9206 33.28 54.0106C33.19 54.1006 33.1 54.1705 32.98 54.2105C32.86 54.2505 32.72 54.2605 32.58 54.2405C32.44 54.2205 32.31 54.1705 32.19 54.1005C32.07 54.0305 31.97 53.9505 31.89 53.8105C31.81 53.6805 31.77 53.5005 31.76 53.3505C31.76 53.2005 31.79 53.0806 31.83 52.9806C31.87 52.8806 31.91 52.8005 31.97 52.7405C32.03 52.6805 32.11 52.6305 32.19 52.5905C32.27 52.5505 32.37 52.5206 32.47 52.5106C32.57 52.5006 32.69 52.5005 32.81 52.5605C32.93 52.6305 33.06 52.7705 33.13 52.8805C33.2 52.9905 33.21 53.0705 33.21 53.1605C33.21 53.2505 33.21 53.3405 33.18 53.4205C33.16 53.5005 33.13 53.5805 33.1 53.6305C33.07 53.6905 33.04 53.7306 32.97 53.7606C32.9 53.8006 32.8 53.8305 32.71 53.8505C32.62 53.8605 32.55 53.8505 32.51 53.8505C32.46 53.8405 32.44 53.8105 32.45 53.7805C32.45 53.7505 32.48 53.7105 32.55 53.6805M37.12 48.5406C39.52 51.1906 38.98 54.9705 38.5 58.3505L38.41 58.9505C38 61.5105 37.41 64.1505 36.57 66.3205C36.28 67.0605 35.98 67.7505 35.67 68.3805C35.07 69.6005 34.36 70.5705 33.76 71.1705C33.26 71.6705 32.71 71.8706 32.26 71.7906C31.8 71.7906 31.29 71.5206 30.66 70.9406C29.51 69.7506 28.35 66.9406 27.41 63.9706C26.48 61.0106 25.94 57.5905 25.88 54.7005C25.83 51.9905 26.32 49.6805 27.64 48.4505C29.16 47.2705 30.77 45.8705 32.42 45.8105C33.98 45.9505 35.54 47.3805 37.11 48.5305L37.12 48.5406Z" fill="white"/>
</mask>
<g mask="url(#mask5_623_59)">
<path d="M39.52 45.8206H25.83V71.8806H39.52V45.8206Z" fill="url(#paint5_linear_623_59)"/>
</g>
<mask id="mask6_623_59" style="mask-type:luminance" maskUnits="userSpaceOnUse" x="28" y="26" width="8" height="9">
<path d="M32.2501 26.0996C34.0201 26.0996 35.53 27.8496 35.55 30.2096C35.57 32.5696 34.0501 34.3296 32.2801 34.3296C30.5101 34.3296 28.9301 32.4496 28.9301 30.2096C28.9301 27.9696 30.4801 26.0996 32.2501 26.0996Z" fill="white"/>
</mask>
<g mask="url(#mask6_623_59)">
<path d="M35.5701 26.0996H28.9401V34.3296H35.5701V26.0996Z" fill="url(#paint6_linear_623_59)"/>
</g>
<defs>
<linearGradient id="paint0_linear_623_59" x1="41.7199" y1="31.9192" x2="22.4999" y2="38.6592" gradientUnits="userSpaceOnUse">
<stop stop-color="#98824E"/>
<stop offset="0.51" stop-color="#F6DF90"/>
<stop offset="1" stop-color="#957D4A"/>
</linearGradient>
<linearGradient id="paint1_linear_623_59" x1="39.9334" y1="59.25" x2="24.8534" y2="62.54" gradientUnits="userSpaceOnUse">
<stop stop-color="#98824E"/>
<stop offset="0.51" stop-color="#F6DF90"/>
<stop offset="1" stop-color="#957D4A"/>
</linearGradient>
<linearGradient id="paint2_linear_623_59" x1="63.5299" y1="12.0899" x2="46.0699" y2="18.0399" gradientUnits="userSpaceOnUse">
<stop stop-color="#98824E"/>
<stop offset="0.51" stop-color="#F6DF90"/>
<stop offset="1" stop-color="#957D4A"/>
</linearGradient>
<linearGradient id="paint3_linear_623_59" x1="0.36999" y1="12.0899" x2="17.84" y2="18.0399" gradientUnits="userSpaceOnUse">
<stop stop-color="#98824E"/>
<stop offset="0.51" stop-color="#F6DF90"/>
<stop offset="1" stop-color="#957D4A"/>
</linearGradient>
<linearGradient id="paint4_linear_623_59" x1="42.99" y1="7.9904" x2="20.81" y2="16.1704" gradientUnits="userSpaceOnUse">
<stop stop-color="#98824E"/>
<stop offset="0.51" stop-color="#F6DF90"/>
<stop offset="1" stop-color="#957D4A"/>
</linearGradient>
<linearGradient id="paint5_linear_623_59" x1="39.14" y1="57.6206" x2="25.68" y2="60.1806" gradientUnits="userSpaceOnUse">
<stop stop-color="#98824E"/>
<stop offset="0.51" stop-color="#F6DF90"/>
<stop offset="1" stop-color="#957D4A"/>
</linearGradient>
<linearGradient id="paint6_linear_623_59" x1="35.4801" y1="29.2296" x2="29.0101" y2="31.1996" gradientUnits="userSpaceOnUse">
<stop stop-color="#98824E"/>
<stop offset="0.51" stop-color="#F6DF90"/>
<stop offset="1" stop-color="#957D4A"/>
</linearGradient>
</defs>
</svg>
