<svg width="224" height="40" viewBox="0 0 224 40" fill="none" xmlns="http://www.w3.org/2000/svg">
<g filter="url(#filter0_d_289_37)">
<path d="M13.7447 11.8882C14.0374 9.44672 16.9819 8.37503 18.7755 10.0571L20.6111 11.7786C21.3264 12.4494 22.3243 12.7283 23.2836 12.5255L25.6702 12.0212C28.1247 11.5025 30.0938 14.0462 28.9766 16.2923L27.9619 18.3325C27.5143 19.2324 27.5471 20.2966 28.0492 21.1673L29.2112 23.1822C30.4493 25.329 28.698 27.966 26.239 27.6576L23.6725 27.3357C22.7142 27.2155 21.7566 27.564 21.0998 28.2721L19.3406 30.1684C17.6552 31.9853 14.6186 31.0909 14.1871 28.6505L13.7821 26.3601C13.6071 25.3704 12.9481 24.5341 12.0268 24.1324L9.93808 23.2218C7.63846 22.2193 7.51183 19.0049 9.72546 17.8246L11.8779 16.6769C12.7431 16.2155 13.3283 15.3604 13.445 14.3869L13.7447 11.8882Z" fill="#ACBD6F"/>
<path d="M14.2411 11.9478C14.4851 9.91317 16.9388 9.02009 18.4335 10.4219L20.2691 12.1433C21.1035 12.9259 22.2677 13.2513 23.387 13.0147L25.7736 12.5104C27.819 12.0781 29.4599 14.1979 28.5289 16.0697L27.5142 18.1099C26.992 19.1597 27.0302 20.4013 27.616 21.4171L28.7781 23.432C29.8098 25.221 28.3504 27.4185 26.3013 27.1615L23.7347 26.8396C22.6167 26.6994 21.4995 27.106 20.7332 27.9321L18.9741 29.8284C17.5696 31.3424 15.039 30.5971 14.6794 28.5634L14.2745 26.273C14.0703 25.1184 13.3015 24.1427 12.2266 23.6741L10.1379 22.7635C8.22154 21.928 8.11602 19.2494 9.96071 18.2658L12.1132 17.1181C13.1226 16.5798 13.8053 15.5822 13.9415 14.4464L14.2411 11.9478Z" stroke="#3C491D"/>
</g>
<g filter="url(#filter1_d_289_37)">
<path d="M106.013 11.8882C106.306 9.44672 109.25 8.37503 111.044 10.0571L112.88 11.7786C113.595 12.4494 114.593 12.7283 115.552 12.5255L117.939 12.0212C120.393 11.5025 122.362 14.0462 121.245 16.2923L120.23 18.3325C119.783 19.2324 119.816 20.2966 120.318 21.1673L121.48 23.1822C122.718 25.329 120.967 27.966 118.508 27.6576L115.941 27.3357C114.983 27.2155 114.025 27.564 113.368 28.2721L111.609 30.1684C109.924 31.9853 106.887 31.0909 106.456 28.6505L106.051 26.3601C105.876 25.3704 105.217 24.5341 104.295 24.1324L102.207 23.2218C99.907 22.2193 99.7804 19.0049 101.994 17.8246L104.146 16.6769C105.012 16.2155 105.597 15.3604 105.714 14.3869L106.013 11.8882Z" fill="#ACBD6F"/>
<path d="M106.51 11.9478C106.754 9.91317 109.207 9.02009 110.702 10.4219L112.538 12.1433C113.372 12.9259 114.536 13.2513 115.656 13.0147L118.042 12.5104C120.088 12.0781 121.728 14.1979 120.797 16.0697L119.783 18.1099C119.261 19.1597 119.299 20.4013 119.885 21.4171L121.047 23.432C122.078 25.221 120.619 27.4185 118.57 27.1615L116.003 26.8396C114.885 26.6994 113.768 27.106 113.002 27.9321L111.243 29.8284C109.838 31.3424 107.308 30.5971 106.948 28.5634L106.543 26.273C106.339 25.1184 105.57 24.1427 104.495 23.6741L102.406 22.7635C100.49 21.928 100.385 19.2494 102.229 18.2658L104.382 17.1181C105.391 16.5798 106.074 15.5822 106.21 14.4464L106.51 11.9478Z" stroke="#3C491D"/>
</g>
<g filter="url(#filter2_d_289_37)">
<path d="M59.8785 11.8882C60.1712 9.44672 63.1157 8.37503 64.9093 10.0571L66.7449 11.7786C67.4602 12.4494 68.458 12.7283 69.4174 12.5255L71.804 12.0212C74.2585 11.5025 76.2276 14.0462 75.1104 16.2923L74.0957 18.3325C73.6481 19.2324 73.6808 20.2966 74.183 21.1673L75.345 23.1822C76.5831 25.329 74.8318 27.966 72.3728 27.6576L69.8063 27.3357C68.848 27.2155 67.8904 27.564 67.2336 28.2721L65.4744 30.1684C63.789 31.9853 60.7524 31.0909 60.3209 28.6505L59.9159 26.3601C59.7409 25.3704 59.0819 24.5341 58.1606 24.1324L56.0719 23.2218C53.7722 22.2193 53.6456 19.0049 55.8592 17.8246L58.0117 16.6769C58.8769 16.2155 59.4621 15.3604 59.5788 14.3869L59.8785 11.8882Z" fill="#ACBD6F"/>
<path d="M60.3749 11.9478C60.6189 9.91317 63.0726 9.02009 64.5673 10.4219L66.4029 12.1433C67.2373 12.9259 68.4015 13.2513 69.5208 13.0147L71.9074 12.5104C73.9528 12.0781 75.5937 14.1979 74.6627 16.0697L73.648 18.1099C73.1258 19.1597 73.164 20.4013 73.7498 21.4171L74.9118 23.432C75.9436 25.221 74.4842 27.4185 72.435 27.1615L69.8685 26.8396C68.7505 26.6994 67.6333 27.106 66.867 27.9321L65.1079 29.8284C63.7033 31.3424 61.1728 30.5971 60.8132 28.5634L60.4082 26.273C60.2041 25.1184 59.4353 24.1427 58.3604 23.6741L56.2717 22.7635C54.3553 21.928 54.2498 19.2494 56.0945 18.2658L58.2469 17.1181C59.2564 16.5798 59.9391 15.5822 60.0753 14.4464L60.3749 11.9478Z" stroke="#3C491D"/>
</g>
<g filter="url(#filter3_d_289_37)">
<path d="M152.147 11.8882C152.44 9.44672 155.384 8.37503 157.178 10.0571L159.013 11.7786C159.729 12.4494 160.727 12.7283 161.686 12.5255L164.073 12.0212C166.527 11.5025 168.496 14.0462 167.379 16.2923L166.364 18.3325C165.917 19.2324 165.949 20.2966 166.452 21.1673L167.614 23.1822C168.852 25.329 167.1 27.966 164.641 27.6576L162.075 27.3357C161.117 27.2155 160.159 27.564 159.502 28.2721L157.743 30.1684C156.058 31.9853 153.021 31.0909 152.589 28.6505L152.184 26.3601C152.009 25.3704 151.35 24.5341 150.429 24.1324L148.34 23.2218C146.041 22.2193 145.914 19.0049 148.128 17.8246L150.28 16.6769C151.145 16.2155 151.731 15.3604 151.847 14.3869L152.147 11.8882Z" fill="#ACBD6F"/>
<path d="M156.836 10.4219L158.671 12.1433C159.506 12.9259 160.67 13.2513 161.789 13.0147L164.176 12.5104C166.221 12.0781 167.862 14.1979 166.931 16.0697L165.917 18.1099C165.394 19.1597 165.433 20.4013 166.018 21.4171L167.18 23.432C168.212 25.221 166.753 27.4185 164.704 27.1615L162.137 26.8396C161.019 26.6994 159.902 27.106 159.136 27.9321L157.376 29.8284C155.972 31.3424 153.441 30.5971 153.082 28.5634L152.677 26.273C152.473 25.1184 151.704 24.1427 150.629 23.6741L148.54 22.7635C146.624 21.928 146.518 19.2494 148.363 18.2658L150.515 17.1181C151.525 16.5798 152.208 15.5822 152.344 14.4464L152.643 11.9478C152.887 9.91317 155.341 9.02009 156.836 10.4219Z" stroke="#3C491D"/>
</g>
<g filter="url(#filter4_d_289_37)">
<path d="M198.281 11.8882C198.574 9.44672 201.518 8.37503 203.312 10.0571L205.147 11.7786C205.863 12.4494 206.861 12.7283 207.82 12.5255L210.206 12.0212C212.661 11.5025 214.63 14.0462 213.513 16.2923L212.498 18.3325C212.051 19.2324 212.083 20.2966 212.585 21.1673L213.747 23.1822C214.986 25.329 213.234 27.966 210.775 27.6576L208.209 27.3357C207.25 27.2155 206.293 27.564 205.636 28.2721L203.877 30.1684C202.191 31.9853 199.155 31.0909 198.723 28.6505L198.318 26.3601C198.143 25.3704 197.484 24.5341 196.563 24.1324L194.474 23.2218C192.175 22.2193 192.048 19.0049 194.262 17.8246L196.414 16.6769C197.279 16.2155 197.865 15.3604 197.981 14.3869L198.281 11.8882Z" fill="#ACBD6F"/>
<path d="M202.97 10.4219L204.805 12.1433C205.64 12.9259 206.804 13.2513 207.923 13.0147L210.31 12.5104C212.355 12.0781 213.996 14.1979 213.065 16.0697L212.05 18.1099C211.528 19.1597 211.566 20.4013 212.152 21.4171L213.314 23.432C214.346 25.221 212.887 27.4185 210.838 27.1615L208.271 26.8396C207.153 26.6994 206.036 27.106 205.269 27.9321L203.51 29.8284C202.106 31.3424 199.575 30.5971 199.216 28.5634L198.811 26.273C198.607 25.1184 197.838 24.1427 196.763 23.6741L194.674 22.7635C192.758 21.928 192.652 19.2494 194.497 18.2658L196.649 17.1181C197.659 16.5798 198.342 15.5822 198.478 14.4464L198.777 11.9478C199.021 9.91317 201.475 9.02009 202.97 10.4219Z" stroke="#3C491D"/>
</g>
<defs>
<filter id="filter0_d_289_37" x="4.13696" y="9.24219" width="29.4819" height="29.8887" filterUnits="userSpaceOnUse" color-interpolation-filters="sRGB">
<feFlood flood-opacity="0" result="BackgroundImageFix"/>
<feColorMatrix in="SourceAlpha" type="matrix" values="0 0 0 0 0 0 0 0 0 0 0 0 0 0 0 0 0 0 127 0" result="hardAlpha"/>
<feOffset dy="4"/>
<feGaussianBlur stdDeviation="2"/>
<feComposite in2="hardAlpha" operator="out"/>
<feColorMatrix type="matrix" values="0 0 0 0 0 0 0 0 0 0 0 0 0 0 0 0 0 0 0.25 0"/>
<feBlend mode="normal" in2="BackgroundImageFix" result="effect1_dropShadow_289_37"/>
<feBlend mode="normal" in="SourceGraphic" in2="effect1_dropShadow_289_37" result="shape"/>
</filter>
<filter id="filter1_d_289_37" x="96.4055" y="9.24219" width="29.4819" height="29.8887" filterUnits="userSpaceOnUse" color-interpolation-filters="sRGB">
<feFlood flood-opacity="0" result="BackgroundImageFix"/>
<feColorMatrix in="SourceAlpha" type="matrix" values="0 0 0 0 0 0 0 0 0 0 0 0 0 0 0 0 0 0 127 0" result="hardAlpha"/>
<feOffset dy="4"/>
<feGaussianBlur stdDeviation="2"/>
<feComposite in2="hardAlpha" operator="out"/>
<feColorMatrix type="matrix" values="0 0 0 0 0 0 0 0 0 0 0 0 0 0 0 0 0 0 0.25 0"/>
<feBlend mode="normal" in2="BackgroundImageFix" result="effect1_dropShadow_289_37"/>
<feBlend mode="normal" in="SourceGraphic" in2="effect1_dropShadow_289_37" result="shape"/>
</filter>
<filter id="filter2_d_289_37" x="50.2708" y="9.24219" width="29.4819" height="29.8887" filterUnits="userSpaceOnUse" color-interpolation-filters="sRGB">
<feFlood flood-opacity="0" result="BackgroundImageFix"/>
<feColorMatrix in="SourceAlpha" type="matrix" values="0 0 0 0 0 0 0 0 0 0 0 0 0 0 0 0 0 0 127 0" result="hardAlpha"/>
<feOffset dy="4"/>
<feGaussianBlur stdDeviation="2"/>
<feComposite in2="hardAlpha" operator="out"/>
<feColorMatrix type="matrix" values="0 0 0 0 0 0 0 0 0 0 0 0 0 0 0 0 0 0 0.25 0"/>
<feBlend mode="normal" in2="BackgroundImageFix" result="effect1_dropShadow_289_37"/>
<feBlend mode="normal" in="SourceGraphic" in2="effect1_dropShadow_289_37" result="shape"/>
</filter>
<filter id="filter3_d_289_37" x="142.539" y="9.24219" width="29.4819" height="29.8887" filterUnits="userSpaceOnUse" color-interpolation-filters="sRGB">
<feFlood flood-opacity="0" result="BackgroundImageFix"/>
<feColorMatrix in="SourceAlpha" type="matrix" values="0 0 0 0 0 0 0 0 0 0 0 0 0 0 0 0 0 0 127 0" result="hardAlpha"/>
<feOffset dy="4"/>
<feGaussianBlur stdDeviation="2"/>
<feComposite in2="hardAlpha" operator="out"/>
<feColorMatrix type="matrix" values="0 0 0 0 0 0 0 0 0 0 0 0 0 0 0 0 0 0 0.25 0"/>
<feBlend mode="normal" in2="BackgroundImageFix" result="effect1_dropShadow_289_37"/>
<feBlend mode="normal" in="SourceGraphic" in2="effect1_dropShadow_289_37" result="shape"/>
</filter>
<filter id="filter4_d_289_37" x="188.673" y="9.24219" width="29.4819" height="29.8887" filterUnits="userSpaceOnUse" color-interpolation-filters="sRGB">
<feFlood flood-opacity="0" result="BackgroundImageFix"/>
<feColorMatrix in="SourceAlpha" type="matrix" values="0 0 0 0 0 0 0 0 0 0 0 0 0 0 0 0 0 0 127 0" result="hardAlpha"/>
<feOffset dy="4"/>
<feGaussianBlur stdDeviation="2"/>
<feComposite in2="hardAlpha" operator="out"/>
<feColorMatrix type="matrix" values="0 0 0 0 0 0 0 0 0 0 0 0 0 0 0 0 0 0 0.25 0"/>
<feBlend mode="normal" in2="BackgroundImageFix" result="effect1_dropShadow_289_37"/>
<feBlend mode="normal" in="SourceGraphic" in2="effect1_dropShadow_289_37" result="shape"/>
</filter>
</defs>
</svg>
