<svg width="300" height="301" viewBox="0 0 300 301" fill="none" xmlns="http://www.w3.org/2000/svg">
<path d="M111.143 291.431C126.643 295.39 141.036 282.172 141.036 264.307C141.036 255.745 137.377 247.911 131.371 240.9C125.344 233.865 117.135 227.893 108.632 223.248C105.275 221.414 102.043 219.327 98.9641 216.998C95.8854 214.669 92.9984 212.125 90.3209 209.394C83.5383 202.474 75.5588 196.199 67.1498 192.312C58.7707 188.438 50.2365 187.048 41.997 189.376C24.8056 194.234 15.9998 211.679 24.0238 225.519C33.3745 241.647 45.8896 255.864 60.9424 267.253C75.9952 278.641 93.0798 286.819 111.143 291.431Z" fill="#3C491A" stroke="#FDFAE7" stroke-width="10"/>
<path d="M69.9769 129.384L74.8513 130.498L69.9769 129.384C70.2854 128.034 70.6303 126.69 71.0116 125.353C74.9854 111.426 82.7574 98.8805 93.4574 89.1203C104.157 79.3601 117.363 72.7709 131.596 70.0905C132.961 69.8333 134.331 69.6131 135.704 69.4297C145.308 68.1466 155.113 65.5191 163.265 61.1169C171.387 56.7304 177.614 50.7317 180.688 42.7403C187.102 26.0666 178.414 8.56313 162.526 6.69258C148.402 5.02976 134.041 5.50461 119.932 8.16164C94.2038 13.0071 70.3316 24.9187 50.9889 42.5625C31.6462 60.2064 17.5964 82.8862 10.4128 108.062C6.47362 121.868 4.68426 136.125 5.04535 150.342C5.45155 166.334 22.0849 176.59 39.2763 171.732C47.5158 169.404 54.0601 163.752 59.1727 156.067C64.3036 148.353 67.8188 138.83 69.9769 129.384Z" fill="#3C491A" stroke="#FDFAE7" stroke-width="10"/>
<path d="M235.59 39.7667C222.544 30.5077 204.365 37.6772 197.952 54.3509C194.878 62.3424 195.48 70.9682 198.569 79.6671C201.669 88.397 207.186 96.9182 213.455 104.307C216.695 108.126 219.579 112.27 222.054 116.694C230.949 132.596 233.997 151.11 230.671 169.024C227.344 186.939 217.853 203.124 203.842 214.772C199.944 218.013 195.764 220.846 191.369 223.247C182.866 227.893 174.657 233.865 168.63 240.9C162.624 247.91 158.965 255.745 158.965 264.307C158.965 282.172 173.358 295.39 188.858 291.431C209.008 286.286 227.915 276.71 244.129 263.23C269.457 242.172 286.616 212.914 292.629 180.53C298.643 148.145 293.132 114.677 277.052 85.9308C266.758 67.5278 252.549 51.8029 235.59 39.7667Z" fill="#3C491A" stroke="#FDFAE7" stroke-width="10"/>
</svg>
