<svg width="300" height="301" viewBox="0 0 300 301" fill="none" xmlns="http://www.w3.org/2000/svg">
<path d="M111.143 291.576C126.643 295.534 141.036 282.316 141.036 264.452C141.036 255.89 137.377 248.055 131.371 241.045C125.344 234.01 117.135 228.038 108.632 223.392C105.275 221.558 102.043 219.472 98.9641 217.142C95.8854 214.813 92.9984 212.27 90.3209 209.538C83.5383 202.619 75.5588 196.344 67.1498 192.456C58.7707 188.583 50.2365 187.192 41.997 189.521C24.8056 194.379 15.9998 211.823 24.0238 225.663C33.3745 241.792 45.8896 256.009 60.9424 267.397C75.9952 278.786 93.0798 286.963 111.143 291.576Z" fill="#FDFAE7" stroke="#3C491A" stroke-width="10"/>
<path d="M69.977 129.529L74.8514 130.642L69.977 129.528C70.2855 128.178 70.6304 126.834 71.0117 125.498C74.9855 111.571 82.7575 99.0251 93.4575 89.2649C104.158 79.5046 117.363 72.9155 131.596 70.235C132.961 69.9778 134.331 69.7576 135.704 69.5742C145.308 68.2911 155.113 65.6637 163.265 61.2614C171.387 56.8749 177.614 50.8762 180.688 42.8848C187.102 26.2111 178.414 8.70766 162.526 6.83711C148.402 5.17429 134.041 5.64915 119.933 8.30617C94.2039 13.1517 70.3317 25.0632 50.989 42.7071C31.6463 60.351 17.5966 83.0307 10.4129 108.207C6.47374 122.012 4.68438 136.27 5.04547 150.486C5.45167 166.479 22.085 176.735 39.2764 171.877C47.5159 169.548 54.0602 163.897 59.1728 156.211C64.3037 148.498 67.8189 138.975 69.977 129.529Z" fill="#FDFAE7" stroke="#3C491A" stroke-width="10"/>
<path d="M235.59 39.9112C222.544 30.6522 204.365 37.8218 197.952 54.4955C194.878 62.4869 195.48 71.1127 198.569 79.8116C201.669 88.5416 207.186 97.0627 213.455 104.451C216.695 108.27 219.579 112.415 222.054 116.839C230.949 132.741 233.998 151.255 230.671 169.169C227.344 187.083 217.853 203.268 203.842 214.917C199.944 218.158 195.764 220.991 191.369 223.392C182.866 228.037 174.657 234.01 168.63 241.045C162.624 248.055 158.965 255.889 158.965 264.452C158.965 282.316 173.358 295.534 188.858 291.576C209.008 286.43 227.915 276.855 244.13 263.374C269.457 242.317 286.616 213.058 292.629 180.674C298.643 148.29 293.132 114.822 277.052 86.0754C266.758 67.6723 252.549 51.9474 235.59 39.9112Z" fill="#FDFAE7" stroke="#3C491A" stroke-width="10"/>
</svg>
